# xmcd
#
# Track frame offsets:
#	150
#	59515
#	110326
#	166550
#
# Disc length: 2751 seconds
#
# Revision: 1
# Processed by: cddbd v1.5.2PL0 Copyright (c) Steve Scherf et al.
# Submitted via: audiograbber 1.83.01
#
DISCID=280abd04
DTITLE=Grateful Dead - 76-10-15 Shrine Auditorium, Los Angeles CA
DYEAR=1900
DGENRE=
TTITLE0=The Other One
TTITLE1=Comes A Time
TTITLE2=Franklin's Tower
TTITLE3=Sugar Magnolia
EXTD=
EXTT0=
EXTT1=
EXTT2=
EXTT3=
PLAYORDER=
